<svg xmlns="http://www.w3.org/2000/svg" xmlns:xlink="http://www.w3.org/1999/xlink" width="46" height="60" viewBox="0 0 46 60"><defs><path id="163ba" d="M190.52 1407.989h-45.05l.204-2.236 2.798-46.718 14.662-11.041.047 57.445h2.565v-56.7l14.242 10.296v4.786l-4.905-3.511-7.007 8.77-.05 3.063 5.656-7.281v40.738h2.338v-42.23l10.964 7.811 3.267 34.572zm-33.59-39.68l3.996-2.685.102-4.345-4.098 2.81zm-2.51 4.47l-4.227 3.197-.26 4.982 4.39-2.936zm0-7.666l-3.963 2.558-.264 5.495 4.227-3.196zm.265-8.042l-4.228 3.185-.264 4.983 4.492-3.322zm6.343 19.802l-4.047 2.631-.051 5.153 3.964-2.19zm.023-8.151l-4.121 2.783v4.847l4.098-2.935zm6.71-11.115l3.239 2.227-.07-4.425-3.17-2.307zm10.17 14.311l2.904 1.597-.129-3.77-2.802-1.948zm3.04 4.92l-2.775-1.4.065 3.571 2.71 1.662zm1.637-2.55l2.85 1.688-.13-3.833-2.77-1.536zm3.12 8.681l-.27-4.059-2.77-1.436.13 3.96z"/></defs><g><g transform="translate(-145 -1348)"><use fill="#2f9fc0" xlink:href="#163ba"/></g></g></svg>