<svg xmlns="http://www.w3.org/2000/svg" xmlns:xlink="http://www.w3.org/1999/xlink" width="65" height="41" viewBox="0 0 65 41"><defs><path id="8lzma" d="M473.63 1387.324l-3.205-8.807-11.881 4.585c-1.134.437-2.583.678-4.081.678-1.498 0-2.947-.24-4.08-.678l-13.064-5.04-3.372 9.262c-.423 1.163 0 2.89.942 3.838 0 0 6.038 6.083 18.97 6.083 13.935 0 18.998-5.984 18.998-5.984.848-1.002 1.196-2.774.773-3.937zm12.195-19.338l-28.418-9.239c-1.62-.527-4.271-.527-5.891 0l-28.418 9.24c-1.62.527-1.656 1.455-.081 2.063l28.582 11.028c1.575.608 4.153.608 5.728 0l21.216-8.188v8.202h-.475c-.24 0-.448.156-.463.349l-1.297 16.594c-.015.19.168.347.408.347h5.87c.24 0 .423-.157.409-.347l-1.271-16.594c-.015-.193-.222-.35-.462-.35h-.476v-9.066l5.121-1.977c1.575-.607 1.539-1.535-.082-2.062z"/></defs><g><g transform="translate(-422 -1358)"><use fill="#2f9fc0" xlink:href="#8lzma"/></g></g></svg>