<svg xmlns="http://www.w3.org/2000/svg" xmlns:xlink="http://www.w3.org/1999/xlink" width="28" height="28" viewBox="0 0 28 28"><defs><path id="73loa" d="M594.53 583.826h3.73v3.043h-3.73zm0-5.478h3.73V582h-3.73zm-5.597 0h3.731V582h-3.731zm13.059-7.914V596h-27.984v-25.566h3.731v1.252a2.105 2.105 0 0 0-.59 1.183c-.007.042-.01.084-.013.126-.006.06-.019.118-.019.18 0 1.175.975 2.13 2.177 2.13s2.176-.955 2.176-2.13c0-.062-.013-.12-.018-.18-.004-.042-.007-.084-.013-.126a2.105 2.105 0 0 0-.59-1.183v-1.252h14.302v1.252a2.105 2.105 0 0 0-.59 1.183c-.006.042-.01.084-.013.126-.005.06-.018.118-.018.18 0 1.175.974 2.13 2.176 2.13 1.202 0 2.177-.955 2.177-2.13 0-.062-.014-.12-.019-.18a2.105 2.105 0 0 0-.603-1.31v-1.25zm-1.866 6.088h-24.253v17.652h24.253zm-16.79 1.826h3.731V582h-3.731zm0 10.348h3.731v3.652h-3.731zm5.597-4.87h3.731v3.043h-3.731zm-10.572-10.651v-4.262c0-.502.42-.913.933-.913.513 0 .933.41.933.913v4.262c0 .501-.42.912-.933.912a.926.926 0 0 1-.933-.912zm4.975 10.651h3.731v3.043h-3.731zm5.597 4.87h3.731v3.652h-3.731zm-11.194 0h3.731v3.652h-3.731zm0-4.87h3.731v3.043h-3.731zm18.034-10.651v-4.262c0-.502.42-.913.933-.913.513 0 .933.41.933.913v4.262c0 .501-.42.912-.933.912a.926.926 0 0 1-.933-.912z"/></defs><g><g transform="translate(-574 -568)"><use fill="#cede71" xlink:href="#73loa"/></g></g></svg>