<svg xmlns="http://www.w3.org/2000/svg" xmlns:xlink="http://www.w3.org/1999/xlink" width="33" height="38" viewBox="0 0 33 38"><defs><path id="bq1ja" d="M414.007 575.519c0 .815-.564 1.862-1.66 1.927-1.097.066-1.52-.75-1.827-.831-.367-.099-.664.258-.664.768v5.454h-4.192c-.068-.96-.237-1.919-.516-2.864-1.003-3.403-3.256-6.206-6.344-7.895a13.065 13.065 0 0 0-3.418-1.281V568.2h5.4c.505 0 .85-.3.752-.672-.08-.31-.888-.739-.822-1.848.065-1.11 1.099-1.68 1.905-1.68.807 0 1.84.57 1.906 1.68.065 1.11-.742 1.538-.823 1.848-.097.371.256.672.76.672h5.392v5.462c0 .51.297.858.664.76.306-.082.73-.898 1.827-.832 1.096.066 1.66 1.112 1.66 1.928zm-18.62 1.856c0-.037.004-.07.007-.104.17.076.339.157.503.246 2.054 1.124 3.332 3.14 3.62 5.32h-4.13zm7.34 11.957c-.117.219-.242.43-.37.638l-.085.137c-.128.2-.26.397-.398.587-.02.03-.043.057-.064.086-.127.173-.258.34-.393.503l-.085.104c-.15.177-.304.348-.463.514l-.101.104c-.15.153-.304.303-.462.447l-.053.05a11.836 11.836 0 0 1-1.198.944c-.015.011-.03.02-.046.03-.177.122-.359.236-.543.346l-.124.074c-.193.114-.39.221-.588.322l-.11.053c-.181.09-.365.176-.551.256l-.102.044a11.446 11.446 0 0 1-.763.287 11.13 11.13 0 0 1-.655.203c-.219.06-.439.111-.66.158l-.15.03c-.219.043-.439.081-.66.112l-.09.011c-.203.026-.407.046-.612.061l-.134.011c-.223.014-.446.021-.67.023l-.13-.002a11.42 11.42 0 0 1-.72-.026h-.023a11.522 11.522 0 0 1-.733-.08c-.046-.007-.091-.012-.137-.02a11.846 11.846 0 0 1-.707-.129c-.045-.009-.089-.02-.133-.03a12.233 12.233 0 0 1-.73-.19l-3.075 5.754c-.048.09-.102.173-.16.254l-.05.068c-.046.06-.095.118-.146.173-.016.018-.032.037-.05.054a2.407 2.407 0 0 1-.21.191c-.014.012-.03.021-.044.032a2.269 2.269 0 0 1-.474.28l-.043.02a2.398 2.398 0 0 1-.263.091l-.07.018a2.494 2.494 0 0 1-.57.073h-.019c-.08-.001-.162-.006-.243-.016-.028-.003-.055-.008-.083-.012a2.147 2.147 0 0 1-.45-.114l-.08-.028a2.35 2.35 0 0 1-.251-.117l-.055-.032a2.408 2.408 0 0 1-.956-3.241l3.074-5.754c-2.805-2.406-4.272-6.005-4.054-9.63a11.729 11.729 0 0 1 1.744-5.485c.036-.06.074-.118.112-.176.102-.16.208-.317.317-.47l.104-.147c.142-.192.289-.38.44-.562l.088-.1a11.19 11.19 0 0 1 .964-1l.083-.08c.174-.155.352-.305.533-.45l.14-.106c.143-.111.29-.22.438-.322a11.783 11.783 0 0 1 .741-.481l.017-.01c.193-.113.39-.22.589-.321.057-.03.115-.057.172-.085.163-.08.327-.156.493-.229l.148-.065c.21-.088.424-.17.638-.245.043-.014.086-.027.128-.042.178-.06.356-.115.536-.166a11.654 11.654 0 0 1 .764-.19l.099-.021c.223-.045.447-.082.673-.114.06-.009.12-.015.18-.022.174-.022.35-.04.526-.054l.191-.014c.228-.015.457-.024.686-.024l.076.002c.187.001.374.007.562.018.07.003.14.01.21.014a12.327 12.327 0 0 1 .664.069c.149.02.297.043.446.069l.198.034c.211.04.422.086.633.14l.041.01.01.003c.193.05.386.106.579.167.067.02.135.044.202.067a11.745 11.745 0 0 1 .65.24c.143.057.285.12.427.183.065.03.13.057.194.087.203.097.405.198.605.307 5.619 3.072 7.71 10.169 4.673 15.85zm-3.96.462c.1-.104.196-.211.29-.322.022-.025.045-.05.067-.077.113-.135.222-.275.328-.418l.078-.11c.08-.114.16-.23.235-.349a8.884 8.884 0 0 0 .36-.608c2.261-4.228.704-9.51-3.477-11.798-.15-.081-.3-.157-.452-.228l-.142-.064a8.7 8.7 0 0 0-.321-.138l-.16-.063a8.391 8.391 0 0 0-.325-.115l-.146-.049a9.118 9.118 0 0 0-.439-.125l-.03-.009a8.953 8.953 0 0 0-.474-.104l-.142-.025a8.869 8.869 0 0 0-.337-.051 9.56 9.56 0 0 0-.494-.051c-.052-.004-.103-.008-.155-.01a7.84 7.84 0 0 0-.414-.014l-.053-.002h-.008c-.17 0-.34.007-.51.018-.048.002-.095.007-.143.01-.13.01-.26.024-.39.04l-.137.018c-.167.023-.334.05-.499.084l-.076.017c-.142.03-.283.064-.423.1l-.147.041c-.13.037-.26.077-.389.12l-.104.035a8.536 8.536 0 0 0-.47.18l-.118.052a8.553 8.553 0 0 0-.913.463l-.03.016c-.147.087-.29.18-.431.274l-.124.086a8.812 8.812 0 0 0-.316.233l-.111.085a8.436 8.436 0 0 0-.394.333l-.067.063c-.107.098-.21.199-.313.303l-.11.114c-.098.104-.194.21-.288.321-.023.026-.046.051-.068.078a8.341 8.341 0 0 0-.327.417l-.08.112c-.08.114-.158.229-.234.347l-.084.132a8.742 8.742 0 0 0-1.151 6.292 8.8 8.8 0 0 0 1.728 3.768 8.69 8.69 0 0 0 1.873 1.75 8.828 8.828 0 0 0 1.205.69c.047.023.095.044.143.065a9.09 9.09 0 0 0 .803.316l.15.05c.145.045.291.088.438.125l.03.009c.157.039.314.073.472.103.049.01.097.017.145.025a8.214 8.214 0 0 0 .83.103c.05.004.102.009.154.011.14.008.279.012.418.013l.05.001h.007a9 9 0 0 0 .51-.017l.143-.01c.13-.01.26-.024.39-.04.046-.006.091-.01.136-.017.168-.024.334-.052.5-.085.025-.004.051-.012.077-.017a9.055 9.055 0 0 0 .96-.263c.033-.01.067-.02.1-.033a8.11 8.11 0 0 0 .472-.181c.04-.016.078-.034.116-.05a7.972 7.972 0 0 0 .494-.233c.144-.074.287-.151.427-.234l.023-.013c.146-.086.29-.179.432-.274l.121-.085c.108-.075.215-.154.32-.235l.108-.083c.134-.107.266-.218.394-.333.023-.02.044-.043.067-.063a8.416 8.416 0 0 0 .422-.417z"/></defs><g><g transform="translate(-381 -564)"><use fill="#fff" xlink:href="#bq1ja"/></g></g></svg>