<svg xmlns="http://www.w3.org/2000/svg" xmlns:xlink="http://www.w3.org/1999/xlink" width="48" height="54" viewBox="0 0 48 54"><defs><path id="lhmoa" d="M761.061 1388.1c0 .041 0 .082-.003.124-.052 7.245-4.974 13.349-11.658 15.266-3.338.961-9.387 1.114-11.95 5.497-2.565-4.383-8.614-4.536-11.952-5.497-6.684-1.917-11.605-8.021-11.658-15.266-.003-.042-.003-.083-.003-.125 0-3.388 1.009-5.508 1.422-6.685.902-2.518 1.894-4.903 1.894-7.913 0-6.27-3.148-10.053-3.148-10.053l7.041-8.453h32.806l7.042 8.453s-3.148 3.784-3.148 10.053c0 3.01.992 5.395 1.893 7.913.414 1.177 1.422 3.297 1.422 6.685zm-7.18-9.1H741.33l-3.88-11.866L733.57 1379h-12.551l10.145 7.343-3.882 11.867 10.17-7.344 10.167 7.344-3.882-11.867z"/></defs><g><g transform="translate(-713 -1355)"><use fill="#2f9fc0" xlink:href="#lhmoa"/></g></g></svg>