<svg xmlns="http://www.w3.org/2000/svg" xmlns:xlink="http://www.w3.org/1999/xlink" width="60" height="60" viewBox="0 0 60 60"><defs><path id="h9iwa" d="M1022.654 1379.237h24.208v2.229c0 14.63-11.855 26.532-26.427 26.532s-26.427-11.902-26.427-26.532 11.855-26.53 26.427-26.53h2.22zm-18.573 16.964l14.134-12.735v-23.96c-11.085 1.12-19.767 10.541-19.767 21.96a22.031 22.031 0 0 0 5.633 14.735zm49.91-21.67v2.228h-28.645l-.001-28.76h2.22c14.572 0 26.427 11.902 26.427 26.531zm-9.778-14.39l-12.113 12.16h7.473l7.63-7.66a22.13 22.13 0 0 0-2.99-4.5zm-14.427 9.835l12.112-12.16a22.053 22.053 0 0 0-4.484-3.003l-7.629 7.661zm0-17.408v5.257l4.33-4.35a21.748 21.748 0 0 0-4.33-.907zm19.654 19.733a21.91 21.91 0 0 0-.905-4.35l-4.332 4.35z"/></defs><g><g transform="translate(-994 -1348)"><use fill="#2f9fc0" xlink:href="#h9iwa"/></g></g></svg>