<svg xmlns="http://www.w3.org/2000/svg" xmlns:xlink="http://www.w3.org/1999/xlink" width="34" height="34" viewBox="0 0 34 34"><defs><path id="l6mwa" d="M965.559 570.428c0-.649.253-1.26.712-1.717a2.416 2.416 0 0 1 1.717-.713c.65 0 1.26.253 1.718.713.46.457.712 1.068.712 1.717 0 .65-.253 1.259-.712 1.718a2.409 2.409 0 0 1-1.718.711 2.413 2.413 0 0 1-1.718-.71 2.418 2.418 0 0 1-.711-1.719zm-1.108 11.034c-.702-3.437-6.598-7.095-4.795-8.897 1.802-1.803 5.078 3.45 8.332 3.45 3.255 0 6.453-5.33 8.333-3.45s-4.093 5.46-4.795 8.897a17.66 17.66 0 0 1-7.075 0zm5.99 18.11c0 .65-.253 1.26-.712 1.717a2.417 2.417 0 0 1-1.718.713c-.648 0-1.259-.254-1.717-.713a2.41 2.41 0 0 1-.712-1.716c0-.65.253-1.26.712-1.719a2.412 2.412 0 0 1 1.718-.71c.648 0 1.258.252 1.717.71.46.459.712 1.068.712 1.718zm1.108-11.034c.702 3.437 6.598 7.095 4.795 8.898-1.802 1.803-5.078-3.452-8.333-3.452-3.254 0-6.452 5.331-8.332 3.452-1.88-1.88 4.093-5.46 4.795-8.898a17.621 17.621 0 0 1 3.537-.356c1.212 0 2.395.122 3.538.356zm11.023-5.98c.649 0 1.26.254 1.717.713.46.458.712 1.069.713 1.717 0 .65-.253 1.26-.713 1.718a2.41 2.41 0 0 1-1.717.712c-.649 0-1.26-.253-1.718-.712a2.41 2.41 0 0 1-.711-1.718c0-.648.252-1.259.711-1.717a2.416 2.416 0 0 1 1.718-.712zm-11.034-1.107c3.437-.702 7.095-6.598 8.898-4.795 1.802 1.802-3.452 5.079-3.452 8.332 0 3.255 5.332 6.453 3.452 8.333s-5.46-4.093-8.898-4.795a17.648 17.648 0 0 1-.357-3.537c0-1.212.123-2.395.357-3.538zm-18.11 5.99a2.41 2.41 0 0 1-1.717-.712 2.415 2.415 0 0 1-.713-1.717c0-.65.253-1.26.713-1.717a2.407 2.407 0 0 1 1.717-.712c.649 0 1.259.252 1.718.712.459.457.712 1.068.711 1.717 0 .649-.252 1.258-.711 1.717a2.413 2.413 0 0 1-1.718.712zm11.034 1.109c-3.437.701-7.095 6.597-8.898 4.795-1.802-1.803 3.452-5.08 3.452-8.333 0-3.255-5.332-6.453-3.452-8.333s5.46 4.093 8.898 4.795a17.64 17.64 0 0 1 .356 3.537c0 1.213-.122 2.396-.356 3.539z"/></defs><g><g transform="translate(-951 -568)"><use fill="#fff" xlink:href="#l6mwa"/></g></g></svg>