<svg xmlns="http://www.w3.org/2000/svg" xmlns:xlink="http://www.w3.org/1999/xlink" width="34" height="26" viewBox="0 0 34 26"><defs><path id="lvi8a" d="M794.712 571.007v26.004h-33.435v-26.004zm-21.662 2.014a1.197 1.197 0 1 0 0 2.394 1.197 1.197 0 0 0 0-2.394zm-4.19 0a1.197 1.197 0 1 0-.002 2.394 1.197 1.197 0 0 0 .001-2.394zm-4.192 0a1.197 1.197 0 1 0-.001 2.394 1.197 1.197 0 0 0 .001-2.394zm28.12 22.067v-17.916h-29.586v17.916zm-26.08-14.825h7.322v7.199h-7.322zm9.815-.09h11.76v1.538h-11.76zm0 3.976h11.76v1.538h-11.76zm0 3.976h7.31v1.538h-7.31z"/></defs><g><g transform="translate(-761 -571)"><use fill="#fff" xlink:href="#lvi8a"/></g></g></svg>